<?xml version="1.0" encoding="utf-8"?>
<!-- Generator: Adobe Illustrator 25.2.0, SVG Export Plug-In . SVG Version: 6.00 Build 0)  -->
<svg version="1.1" id="Layer_7" xmlns="http://www.w3.org/2000/svg" xmlns:xlink="http://www.w3.org/1999/xlink" x="0px" y="0px"
	 viewBox="0 0 204.16 204.64" style="enable-background:new 0 0 204.16 204.64;" xml:space="preserve">
<style type="text/css">
	.st0{fill:#6D91CF;}
	.st1{stroke:#000000;stroke-miterlimit:10;}
	.st2{fill:#DD9F9F;}
	.st3{fill:#E8A4A0;}
	.st4{opacity:0.39;fill:none;stroke:#6D1F2C;stroke-width:0.25;stroke-miterlimit:10;}
	.st5{fill:#EFAAA4;}
	.st6{fill:#3A322E;}
	.st7{display:none;fill:#983541;}
	.st8{display:none;fill:#913343;}
</style>
<g id="Layer_5">
	<g id="Layer_2">
		<rect class="st0" width="204.16" height="204.16"/>
		<g id="Layer_6">
			<path class="st1" d="M123.78,161.72c-0.9,0.73-1.26,1.7-1.88,5.89c-1.34,9.07-0.66,12.83-1.95,13.27
				c-1.82,0.61-5.02-5.93-6.62-5.29c-1.38,0.55,0.72,5.57-1.17,7.29c-2.47,2.27-9.08-3.24-19.56-7.55
				c-17.1-7.04-33.19-0.09-34.94,0.92c-0.61,0.35-2.59,1.59-5.73,3.32c-3.21,1.76-3.98,2.03-4.65,2.5c0,0,0,0,0,0
				c-0.22,0.2-0.43,0.36-0.5,0.4c-0.01,0.01-0.02,0.01-0.02,0.01c-0.37,0.26-1.33,17.84,7.06,20.62c0.34,0.11,1.23,0.19,3,0.33
				c4.38,0.36,7.14,0.27,13.44,0.22c3.1-0.02,4.64-0.04,6.91-0.02c5.95,0.05,8.65,0.27,19.58,0.1c2.37-0.04,3.37-0.06,5.46-0.07
				c4.64-0.02,7.85,0.07,11.87,0.07c0,0,18.94,0.83,35.44,0.08c0.48-0.02,1.66,0.02,2.95-0.56c0.65-0.29,3.13-1.53,4.85-6.79
				c0.87-2.66,4.04-12.31-1.47-20.61c-1.96-2.96-4.91-4.81-10.8-8.52c-2.96-1.87-7.27-4.26-13-5.65
				C126.24,160.29,124.57,161.08,123.78,161.72z"/>
		</g>
		<g id="Layer_4">
			<g>
				<path class="st2" d="M126.48,125.33c0.14-0.04,0.15,0.02,1.46,0.39c1.83,0.53,1.91,0.44,2.1,0.64c0.63,0.68,0.21,1.36,0.26,3.34
					c0.04,1.51,0.29,1.42,0.24,2.34c-0.1,1.91-1.76,4.06-1.76,4.06c-1.57,2.01-3.66,4.68-4.39,4.34c-0.65-0.3,0.72-2.46,1.23-6.69
					C126.17,129.25,125.36,125.66,126.48,125.33z"/>
			</g>
		</g>
	</g>
	<path class="st3" d="M120.01,154.43c0.67,0.33-0.34,2.33,0.24,5.03c0.58,2.73,2.07,3.17,2.82,5.48c0,0,0.16,0.53,0.23,1.12
		c1.28,11.23-4.64,16.77-4.64,16.77c-3.55,3.27-7.89,3.69-9.42,3.83c-9.55,0.92-15.96-6.38-17.25-8.25c-0.3-0.44-1.68-2.44-1.8-4.73
		c-0.04-0.79,0.05-1.46,0.05-1.46c0.2-1.26,0.8-2.04,1.23-4.66c1.15-7.11-1.53-12.84-0.54-13.19c0.3-0.1,0.57,0.39,1.69,1.43
		c1.63,1.51,3.06,2.33,4.68,3.25c2.23,1.28,3.64,2.08,5.76,2.46c0.97,0.17,3.45,0.59,6.18-0.39c1.1-0.39,2.63-1.45,5.7-3.58
		c1.08-0.75,2.25-1.37,3.31-2.14C119.3,154.66,119.7,154.28,120.01,154.43z"/>
	<path class="st4" d="M97.63,147.29c0.13,0.02,0.32,0.06,0.56,0.11c1.47,0.28,2.49,0.5,2.72,0.55c1.14,0.23,2.17,0.22,3.99,0.21
		c1.57-0.01,3.23-0.04,5.34-0.49c0.86-0.19,1.57-0.4,2.08-0.56"/>
</g>
<g id="Layer_3">
	<path class="st5" d="M95.93,99.4c3.85-2.01,7.78-1.69,10.38-1.48c4.8,0.38,8.26,2.09,9.63,2.83c2.44,1.33,6.38,3.47,8.46,7.85
		c1.2,2.54,1.36,4.99,1.69,9.88c0.11,1.72,0.04,1.96,0.23,6.14c0.25,5.63,0.38,5.12,0.32,6.44c-0.1,2.25-0.42,2.57-1.93,9.54
		c-0.95,4.39-0.84,4.35-1.28,5.82c-1,3.36-1.68,5.62-3.52,7.81c-0.63,0.74-2.62,2.04-6.6,4.65c-2.36,1.54-3.62,2.27-5.47,2.65
		c-0.39,0.08-1.84,0.35-3.72,0.16c-2.46-0.26-4.15-1.16-6.41-2.39c-2.76-1.51-4.49-2.45-6.18-4.4c-1.73-1.99-2.48-3.92-3.15-5.67
		c-1.49-3.88-0.76-4.86-2.4-9.09c-0.98-2.5-1.41-2.62-1.67-4.17c-0.51-3.16,0.82-5.74,1.4-7.01c3.44-7.57-1.03-10.91,2.35-19.59
		C88.96,107.05,90.92,102.01,95.93,99.4z"/>
	<path class="st6" d="M100.68,98.05c0.04,0.11,0.45,0.01,2.1,0.05c0.33,0.01,1.5,0.07,2.33,0.22c1.51,0.26,1.98,0.84,4.94,2.47
		c1.55,0.85,1.33,0.64,2.56,1.33c1.68,0.94,2.68,1.67,4.44,2.89c4.89,3.39,4.87,3.04,5.56,3.87c1.27,1.55,1.67,3.07,2.33,5.57
		c0.99,3.78,1.11,7.36,1.11,7.36c0.08,2.6-0.19,4.3,0.94,5.14c0.75,0.56,1.4,0.21,2.2,0.93c1.08,0.96,1.07,2.61,1.07,3.23
		c-0.01,1.93-0.86,3.35-1.46,4.31c-1.35,2.15-2.25,2.15-3.37,3.78c-0.19,0.27-0.35,0.57-0.62,1.17c-1.08,2.4-1.57,4.72-1.57,4.72
		c-0.31,1.48-0.94,3.67-2.31,6.66c-0.62,1.07-0.94,1.48-1.21,2.39c-0.6,2.05-0.13,3.85,0.18,4.97c0.34,1.22,0.99,3.55,3.11,5.11
		c1.03,0.76,2.08,1.1,3.05,1.4c1.47,0.47,2.6,0.56,3.55,0.66c0,0,4.61,0.45,9.19,1.34c1.14,0.22,2.45,0.51,4.04,1.03
		c0.77,0.25,1.9,0.65,3.16,1.31c2.15,1.13,2.45,1.91,4.34,3.19c1.34,0.91,4.63,2.84,5.42,2.08c0.21-0.21,0.74-1.08-3.62-7.96
		c-6.01-9.47-8.04-9.42-9.08-13.47c-1.45-5.69,2.51-6.9,1.07-13.37c-0.3-1.35-0.72-2.33-0.89-2.72c-2.9-6.5-4.34-9.74-4.75-10.56
		c-2.62-5.26-1.01-5.37-4.17-14.83c-1.9-5.69-3.02-8.95-5.83-12.56c-2-2.57-4.2-5.38-7.89-6.78
		C111.5,89.55,100.48,97.46,100.68,98.05z"/>
	<path class="st6" d="M108.24,96.33c0.14,0.54,2.25-0.13,5.43,0.47c2.92,0.55,3.96,1.64,5.42,0.97c0.92-0.42,1.67-1.4,1.74-2.39
		c0.04-0.59-0.13-1.68-2.97-3.86c-1.66-1.27-3.53-2.7-6.7-3.7c-4.57-1.45-8.48-0.87-11.26-0.44c-6.68,1.03-11.52,4.03-14.06,5.86
		c-3.45,2.5-5.52,5.02-6.11,5.76c-1.04,1.31-3.06,3.89-4.42,7.69c-1.44,4.01-2.27,9.73-3.24,13.06c-0.12,0.4-0.33,1.09-0.75,1.92
		c-0.48,0.95-0.99,1.58-1.55,2.29c-0.79,0.99-1.63,1.93-2.35,2.97c-1.58,2.28-3.93,5.7-5.46,10.5c-1.51,4.74-2.1,8.74-2.35,11.04
		c-0.38,3.59-0.26,5.94-1.92,8.93c-0.07,0.12-1.24,2.6-1.24,2.6c0,0-1.39,1.52-2.35,2.89c-0.92,1.32-2.27,3.23-2.38,5.71
		c-0.05,1.12,0.2,1.25-0.02,1.91c-0.57,1.73-2.68,2.11-4.26,2.97c-3.33,1.8-5.71,6.42-4.73,8.29c1.27,2.41,6.81-0.28,15.58,1.1
		c6.9,1.08,7.57,2.92,13.15,2.88c2.2-0.02,7.05-0.11,12.01-3.17c1.44-0.89,6.33-3.9,8.27-9.56c0.07-0.22,0.12-0.38,0.16-0.55
		c1.65-5.9,0.64-12.39-0.94-18.08c-0.71-2.55-1.9-5.78-4.28-12.23c-2.08-5.64-2.82-7.23-2.3-9.49c1.01-4.34,4.87-4.03,7.95-8.25
		c4.72-6.47-1.59-12.6,2.62-25.22c0.86-2.56,2.3-5.84,5.43-8.29c1.15-0.9,4.36-3.39,7.78-2.42c2.23,0.64,4.43,2.71,4.17,4.38
		C111.99,94.91,108.06,95.61,108.24,96.33z"/>
	<path class="st6" d="M101.72,103.24c0.34-0.4,0.82-1.1,1.67-1.74c2.66-1.99,6.1-1.71,8.1-1.33c1.33-0.63,2.44-0.98,3.17-1.17
		c2.36-0.62,4.17-0.57,7.2-1.51c1.35-0.42,1.57-0.62,1.69-0.87c0.71-1.39-2.5-4.29-4.43-5.72c-0.84-0.62-5.37-3.83-12.82-4.18
		c-1.82-0.09-13.43-0.45-21.82,8.11c-4.65,4.75-9.3,13.25-6.6,19.54c0.71,1.66,1.16,1.36,2.6,4.06c3.64,6.84,2.21,11.53,4.3,12.33
		c2.14,0.82,6.1-3.18,8.34-6.34C98.85,116.32,95.84,110.22,101.72,103.24z"/>
	<path class="st7" d="M97.15,147.28c0.01-0.06,0.4-0.06,0.59-0.07c1.39-0.07,1.9-0.85,3.96-1.42c0.86-0.24,1.22-0.27,1.61-0.19
		c0.51,0.1,0.64,0.29,1.1,0.33c0.72,0.07,1.04-0.34,1.62-0.51c1.03-0.31,1.58,0.5,3.31,1.1c1.92,0.66,3.19,0.33,3.21,0.57
		c0.03,0.34-2.52,0.93-4.7,1.16c-0.53,0.06-1.45,0.07-3.28,0.13c-0.45,0.01-0.82,0.02-1.31,0c-0.29-0.01-0.55-0.04-0.79-0.06
		c-0.59-0.06-1.28-0.2-1.48-0.24c-0.98-0.19-1.59-0.31-2.81-0.55C97.55,147.42,97.14,147.34,97.15,147.28z"/>
	<path class="st8" d="M97.15,147.28c-0.23,0.34,1.09,1.82,2.59,2.78c0.64,0.41,2.55,1.6,5.21,1.47c1.65-0.08,2.82-0.63,3.53-0.96
		c2.47-1.17,4.32-3.2,4.07-3.57c-0.16-0.24-1,0.44-3.13,0.87c-1.49,0.3-2.8,0.32-4.63,0.35c-0.97,0.01-1.46,0.02-2.01-0.02
		c-1.8-0.15-3.45-0.49-3.72-0.55C97.68,147.32,97.26,147.11,97.15,147.28z"/>
</g>
</svg>
